<?xml version="1.0" encoding="UTF-8"?>
<svg xmlns="http://www.w3.org/2000/svg" width="63.424" height="60" viewBox="0 0 63.424 60"><g id="Group_21" data-name="Group 21" transform="translate(-1363 -12)"><g id="Group_20" data-name="Group 20" transform="translate(1363 12)"><path id="Path_74" data-name="Path 74" d="M618.445,284.426a3.549,3.549,0,0,1,1.021.5,4.29,4.29,0,0,1,.854.892c.206.277.4.563.609.838a.235.235,0,0,0,.167.063c1.343,0,2.686-.015,4.028.013a1.859,1.859,0,0,0,1.047-.306c.425-.257.86-.5,1.292-.747q.59-.338,1.181-.673a.354.354,0,0,1,.136-.047,9.882,9.882,0,0,1,1.712.022c.86.074,1.7.254,2.547.4l.657.116a4.886,4.886,0,0,1-.437.7c-.392.442-.818.853-1.227,1.28-.339.354-.689.7-1.009,1.072-.546.634-1.062,1.294-1.611,1.925a6.389,6.389,0,0,0-.912,1.635c-.1.225-.214.445-.33.681l-1-.376c-1.062-.4-2.123-.8-3.188-1.193a1.136,1.136,0,0,0-.464-.041,11.259,11.259,0,0,0-2.523.573q-.994.318-2.006.58a4.122,4.122,0,0,1-1.429.145c0-.076,0-.156,0-.235.021-.414.018-.831.071-1.241a3.739,3.739,0,0,0-.279-1.55,18.606,18.606,0,0,0-1.4-3.369,2.415,2.415,0,0,1-.172-.33,1.208,1.208,0,0,1-.053-.362c0-.034.074-.084.123-.1.764-.267,1.529-.529,2.295-.793a1.36,1.36,0,0,0,.14-.066Z" transform="translate(-586.235 -284.426)" fill="#23232c"/><path id="Path_75" data-name="Path 75" d="M578.082,353.055c.307.235.631.451.915.71a13,13,0,0,1,1.526,1.739c.285.371.589.726.882,1.09a.251.251,0,0,1,.06.139c-.006.733-.04,1.467-.018,2.2a5.954,5.954,0,0,0,.2,1.045.31.31,0,0,0,.114.153.144.144,0,0,0,.239-.088c.119-.492.246-.983.349-1.479.034-.162.114-.163.23-.135a2.231,2.231,0,0,1,.862.463,9.076,9.076,0,0,1,1.473,1.5,4.538,4.538,0,0,0,1.573,1.156,21.029,21.029,0,0,0,2.578,1.113.463.463,0,0,1,.149.093,5.792,5.792,0,0,1,1.452,1.985,9.229,9.229,0,0,1,.64,2.084c.085.477.167.955.226,1.436.052.414.08.833.1,1.25.031.551.045,1.1.07,1.654,0,.1.025.2.041.319-.712-.137-1.4-.274-2.08-.4-.866-.16-1.732-.309-2.6-.466-.4-.073-.794-.153-1.192-.229-.088-.017-.094-.057-.074-.14a8.662,8.662,0,0,0,.246-2.375,3.644,3.644,0,0,0-.2-1.095c-.054.092-.1.157-.132.227-.406.8-.81,1.6-1.22,2.4a.6.6,0,0,1-.182.2q-.3.22-.62.42a.361.361,0,0,1-.185.037c-2.2,0-4.406-.006-6.61.009a4.771,4.771,0,0,0-1.006.161c-.684.154-1.37.3-2.041.5q-1.528.454-3.034.982c-.768.269-1.52.587-2.278.887a8.185,8.185,0,0,1-.78.289l2.908-7.092a1.088,1.088,0,0,0-.86.253c-.383.34-.779.664-1.181.98-.362.285-.728.566-1.111.82-.58.384-1.165.763-1.768,1.109a14.074,14.074,0,0,1-2.624,1.151c-.028.009-.058.012-.087.019.094-.685.186-1.357.279-2.03.075-.547.158-1.092.226-1.64.055-.436.09-.874.136-1.311.052-.49.111-.98.16-1.471.03-.313.045-.628.07-.943q.064-.821.13-1.643a.326.326,0,0,0,0-.082c-.071-.371.158-.557.445-.684.319-.141.652-.253.978-.381.861-.335,1.727-.656,2.58-1.01.979-.406,1.959-.815,2.917-1.271.932-.444,1.847-.929,2.748-1.434.715-.4,1.405-.849,2.093-1.3a8.318,8.318,0,0,0,.742-.608l1.369-1.131c.042-.034.087-.064.131-.1Z" transform="translate(-552.812 -327.962)" fill="#23232c"/><path id="Path_76" data-name="Path 76" d="M645.069,348.111c.791,0,1.558,0,2.325,0,.235,0,.469.027.7.028.11,0,.172.046.183.143.034.278.073.556.079.835a7.343,7.343,0,0,1-.045.814c-.029.323-.067.646-.11.969q-.086.642-.186,1.281c-.053.336-.128.669-.177,1.006a9.944,9.944,0,0,1-1.011,2.907c-.431.888-.917,1.749-1.378,2.622-.014.027-.023.057-.039.1l.621.051c.232.02.464.044.7.058a.163.163,0,0,0,.12-.061c.4-.558.8-1.113,1.188-1.679a14.423,14.423,0,0,0,1.361-2.445,1.3,1.3,0,0,0,.1-.422c.041-.609.066-1.219.1-1.829.026-.406.062-.811.1-1.217.053-.617.11-1.234.162-1.851.027-.337.044-.674.068-1.011.011-.156.027-.312.042-.475l3.405-.5c.025.183.055.345.068.509.028.342.048.684.069,1.025.034.559.063,1.118.1,1.676q.041.609.1,1.217c.052.556.113,1.112.161,1.668.031.362.063.727.065,1.09.009,1.058.016,2.116,0,3.174-.009.5-.077,1.006-.125,1.509-.039.421-.081.843-.135,1.262q-.088.684-.2,1.365-.133.782-.291,1.56-.135.671-.3,1.337a26.845,26.845,0,0,1-1.125,3.493c-.2.506-.448,1-.679,1.49a.323.323,0,0,1-.131.119c-.422.245-.815.05-1.211-.083-.768-.257-1.53-.53-2.3-.771a4.619,4.619,0,0,1-1.12-.573c-.649-.416-1.313-.807-1.957-1.232a8.07,8.07,0,0,1-.935-.73c-.387-.346-.759-.71-1.121-1.083a18.292,18.292,0,0,1-1.677-2.017,22.264,22.264,0,0,1-1.968-3.339.751.751,0,0,1,.513-1.137,6.014,6.014,0,0,1,.727-.163,1.646,1.646,0,0,0,.643-.25,7.454,7.454,0,0,0,2.285-2.375A12.014,12.014,0,0,0,644.2,352.9q.281-1.062.49-2.142c.118-.621.183-1.252.271-1.879C645,348.624,645.033,348.374,645.069,348.111Z" transform="translate(-600.713 -324.398)" fill="#23232c"/><path id="Path_77" data-name="Path 77" d="M564.451,329.466c-.05-.572-.1-1.124-.145-1.677a11.553,11.553,0,0,1-.06-1.238,3.286,3.286,0,0,1,.42-1.68.921.921,0,0,1,.38-.275c.465-.228.937-.445,1.41-.657.118-.053.126-.131.116-.236-.023-.238-.045-.476-.063-.714q-.067-.9-.129-1.809c-.016-.233-.026-.468-.036-.7-.013-.316-.018-.633-.035-.949-.017-.287-.045-.574-.069-.873-.234-.026-.47-.06-.706-.078-.386-.029-.773-.047-1.16-.067-.195-.01-.276-.16-.359-.3a2.617,2.617,0,0,1-.34-1.186,6.12,6.12,0,0,1,.343-2.238c.371-1.267.72-2.541,1.055-3.817a6.416,6.416,0,0,0,.224-1.671c0-.545.036-1.09.063-1.635.014-.293.047-.585.062-.878.006-.122.053-.168.171-.154.291.035.585.054.873.1.569.1,1.139.2,1.7.326a24.16,24.16,0,0,1,3.393,1.02q1.42.544,2.823,1.129a5.243,5.243,0,0,1,.763.46c.345.221.686.45,1.027.677a.492.492,0,0,1,.238.445c-.007,1.743-.012,3.486,0,5.229a8.045,8.045,0,0,0,.127,1.311c.121.686.262,1.369.432,2.044.18.715.4,1.419.608,2.128.127.439.254.88.378,1.32a.134.134,0,0,1-.016.109c-.394.444-.783.893-1.191,1.324a2.585,2.585,0,0,1-1.019.651c-.2.071-.21.064-.277-.134-.1-.291-.194-.583-.295-.874-.094-.27-.187-.541-.291-.806-.074-.187-.2-.2-.319-.04-.09.117-.187.228-.286.337a23.2,23.2,0,0,1-1.856,1.8,20.68,20.68,0,0,1-2.848,2.075,19.251,19.251,0,0,1-2.67,1.351A21.087,21.087,0,0,1,564.451,329.466Zm3.6-6.844c.351-.235.689-.468,1.035-.688a.159.159,0,0,0,.089-.18c-.044-.316-.093-.631-.127-.948-.061-.566-.11-1.133-.167-1.7-.019-.186-.046-.37-.069-.553h-1.1A13.08,13.08,0,0,0,568.046,322.622Z" transform="translate(-553.21 -298.515)" fill="#23232c"/><path id="Path_78" data-name="Path 78" d="M653.962,310c.025-.44.049-.868.073-1.3,0-.021,0-.043,0-.065.011-.35.021-.7.033-1.051.021-.61.042-1.221.067-1.831.017-.387.024-.775.069-1.158a4.567,4.567,0,0,0-.226-1.82c-.192-.661-.351-1.333-.537-2a27.867,27.867,0,0,0-1.024-2.983,6.291,6.291,0,0,0-.405-.867,1.118,1.118,0,0,1-.007-1.083,6.872,6.872,0,0,1,1.743-2.363c.272-.254.594-.452.89-.68a.468.468,0,0,0,.089-.135c.037-.064.058-.152.112-.19.662-.46,1.318-.931,2-1.36.5-.313,1.027-.58,1.553-.847.646-.328,1.289-.669,1.96-.938a14.082,14.082,0,0,1,1.759-.531,5.4,5.4,0,0,1,.84-.081c0,.1,0,.156,0,.209.011.509.046,1.018.024,1.525a9.516,9.516,0,0,1-.159,1.139c-.07.426-.148.852-.228,1.276-.1.54-.214,1.077-.312,1.618a3.65,3.65,0,0,0-.078.645c0,.6,0,1.194.033,1.789.024.493.087.983.126,1.476.028.357.04.717.069,1.074.038.471.087.94.128,1.41.016.19.03.38.033.571.014.935.049,1.872.025,2.806a15.671,15.671,0,0,1-.19,1.828,5.382,5.382,0,0,1-.922,2.69c-.03.057-.088.1-.118.155-.2.371-.587.368-.922.447-.577.137-1.16.251-1.743.355-.378.067-.764.1-1.146.145s-.754.085-1.133.122c-.2.02-.4.03-.6.041-.24.013-.48.038-.718.031C654.746,310.059,654.372,310.025,653.962,310Zm4.047-3.872c.128-.041.249-.056.278-.235.109-.666.26-1.325.351-1.993.077-.564.107-1.136.132-1.706.015-.354-.024-.709-.026-1.064a12.5,12.5,0,0,0-.2-1.992,7.98,7.98,0,0,0-.9-2.718,10.065,10.065,0,0,0-.715-.965.171.171,0,0,0-.213-.058,1.063,1.063,0,0,0-.8,1.2,3.428,3.428,0,0,0,.15.794,11.968,11.968,0,0,0,.871,2.054,3.516,3.516,0,0,1,.372.821c.118.608.178,1.229.239,1.845.042.433.047.869.07,1.3.01.19.023.381.035.571.032.527.081,1.054.089,1.582A.676.676,0,0,0,658.009,306.126Z" transform="translate(-609.166 -287.151)" fill="#23232c"/><path id="Path_79" data-name="Path 79" d="M580.077,294.248c-.746.516-1.492,1.034-2.241,1.548-.611.42-1.226.834-1.837,1.254a.166.166,0,0,1-.187.011c-1.187-.511-2.367-1.037-3.566-1.519-1.064-.428-2.14-.834-3.229-1.195-1.329-.44-2.677-.823-4.018-1.228a.3.3,0,0,1-.22-.185q-.708-1.7-1.432-3.4c-.207-.48-.422-.958-.662-1.421a.614.614,0,0,1,.328-.949,11.168,11.168,0,0,1,1.454-.5,2.536,2.536,0,0,1,.733,0c.206.009.411.035.617.044a9.452,9.452,0,0,1,3.213.734,17.439,17.439,0,0,1,2.309,1.212c.278.168.548.351.835.5a6.175,6.175,0,0,0,.672.276c.221.086.443.167.665.249a.732.732,0,0,0,.1.022c-.184-.347-.361-.679-.535-1.012a5.3,5.3,0,0,1-.273-.551,1.471,1.471,0,0,1-.077-.411c-.03-.356-.051-.714-.077-1.086h.166c.894,0,1.787-.012,2.68.006a5.783,5.783,0,0,1,1.095.133c.652.142,1.3.293,1.943.487a6.006,6.006,0,0,1,2.665,1.675,6.4,6.4,0,0,1,1.226,1.644,12.133,12.133,0,0,1,.941,2.545,2.3,2.3,0,0,1,.04.961l-1.519.147a1.17,1.17,0,0,0-.321.041c-.163.066-.24-.019-.32-.13-.371-.511-.741-1.023-1.117-1.531a1.585,1.585,0,0,0-.221-.2l-.059.024Z" transform="translate(-552.52 -285.832)" fill="#23232c"/><path id="Path_80" data-name="Path 80" d="M590.4,421.6c-.2.108-.177.286-.193.433-.073.652-.134,1.306-.2,1.959-.036.368-.066.736-.1,1.1-.051.5-.11,1-.161,1.5-.027.271-.054.542-.065.814-.006.142-.059.192-.2.191-.613,0-1.228,0-1.842,0-.279,0-.557-.023-.835-.03-.16,0-.158-.125-.148-.22.039-.389.094-.776.142-1.165.04-.334.077-.669.116-1,.053-.436.109-.872.159-1.309s.09-.865.138-1.3c.032-.3.072-.593.1-.889.024-.227.037-.456.061-.683.049-.475.1-.951.158-1.424.058-.44.111-.884.209-1.316a3.953,3.953,0,0,1,.374-1.151,2.032,2.032,0,0,1,1.167-.934,2.24,2.24,0,0,1,1.281-.054,2.1,2.1,0,0,1,.949.415,1.8,1.8,0,0,1,.421.6c.211.532.4,1.077.555,1.626.088.3.086.632.151.943.074.358.167.714.273,1.064.025.084.134.142.2.212.08-.092.205-.172.231-.278.108-.434.181-.877.276-1.314.07-.317.151-.632.237-.944s.179-.635.287-.946a2.207,2.207,0,0,1,1.208-1.365,2.092,2.092,0,0,1,1.651.017,2.756,2.756,0,0,1,1.063.72.673.673,0,0,1,.153.276c.126.532.251,1.065.352,1.6.087.469.14.944.211,1.416.061.4.13.8.187,1.2.053.376.092.754.142,1.129.057.43.119.859.176,1.289.054.414.1.83.152,1.244q.052.42.1.841c.041.318.083.636.125.955.022.172.037.346.063.518s-.031.252-.214.252h-2.729c-.181,0-.228-.046-.239-.229-.034-.548-.066-1.1-.1-1.646-.042-.6-.087-1.194-.131-1.792s-.085-1.183-.133-1.774c-.026-.312-.063-.623-.1-.959a.406.406,0,0,0-.262.312c-.106.575-.194,1.154-.3,1.729-.047.26-.125.514-.178.772s-.093.531-.149.8c-.059.28-.124.56-.2.836s-.187.553-.251.836a1.438,1.438,0,0,1-1.27,1.082,1.648,1.648,0,0,1-1.5-.394,1.11,1.11,0,0,1-.275-.455c-.2-.573-.416-1.146-.572-1.732s-.253-1.194-.372-1.793c-.082-.408-.151-.818-.235-1.226A2.958,2.958,0,0,0,590.4,421.6Z" transform="translate(-567.792 -367.881)" fill="#23232c"/><path id="Path_81" data-name="Path 81" d="M653.623,427.9c-.147,0-.3-.009-.444,0a4.3,4.3,0,0,1-2.306-.574,5.906,5.906,0,0,1-2.749-2.944,5.8,5.8,0,0,1-.456-1.82,6.068,6.068,0,0,1,.3-2.521,5.7,5.7,0,0,1,1.011-1.821,5.854,5.854,0,0,1,1.769-1.474,5.211,5.211,0,0,1,1.958-.652,8.177,8.177,0,0,1,1.4-.059,5.742,5.742,0,0,1,1.931.469,5.986,5.986,0,0,1,1.956,1.375,6.3,6.3,0,0,1,.942,1.322,5.447,5.447,0,0,1,.632,1.982,9.309,9.309,0,0,1,.01,1.42,5.152,5.152,0,0,1-.6,2.131,5.977,5.977,0,0,1-1.49,1.862,6.248,6.248,0,0,1-2.127,1.152A5.641,5.641,0,0,1,653.623,427.9Zm-2.491-5.87a1.8,1.8,0,0,0,.005.442,2.988,2.988,0,0,0,.72,1.384,2.4,2.4,0,0,0,2.3.745,2.657,2.657,0,0,0,1.973-3.254,2.605,2.605,0,0,0-2.3-1.993,2.274,2.274,0,0,0-1.54.435A2.577,2.577,0,0,0,651.132,422.025Z" transform="translate(-606.482 -367.905)" fill="#23232c"/><path id="Path_82" data-name="Path 82" d="M689.307,420.29V420.1q0-1.669,0-3.338c0-.184.061-.25.239-.251q1.406-.018,2.81-.032c.232,0,.307.063.31.294.009.739.007,1.478.015,2.217.009.8.028,1.6.038,2.4.008.564.008,1.129.009,1.693q0,2.426,0,4.851c0,.182-.033.221-.22.219q-1.273-.012-2.546-.033c-.163,0-.325-.032-.487-.027-.137,0-.167-.055-.168-.175q-.014-1.619-.031-3.238c0-.315,0-.631,0-.966h-1.965c-.23,0-.285.043-.3.277-.019.256-.032.514-.033.771,0,1.036,0,2.072,0,3.107,0,.194-.04.227-.231.22q-.672-.021-1.344-.035c-.542-.012-1.083-.024-1.625-.03-.13,0-.157-.071-.154-.177.011-.366.03-.732.031-1.1,0-.442-.023-.885-.022-1.327,0-.837.016-1.674.016-2.512,0-.527-.021-1.054-.023-1.582,0-1.459,0-2.918,0-4.377,0-.185.091-.351.208-.37a2.318,2.318,0,0,1,.357-.034c.855,0,1.71,0,2.566,0,.139,0,.193.055.193.2q-.006,1.431,0,2.862c0,.218.015.438.037.655a.152.152,0,0,0,.109.1c.377,0,.754-.017,1.131-.026.159,0,.318,0,.477,0C688.894,420.314,689.093,420.3,689.307,420.29Z" transform="translate(-629.303 -368.193)" fill="#23232c"/><path id="Path_83" data-name="Path 83" d="M565,423.529c-.771,0-1.5,0-2.222,0-.036,0-.087.063-.1.106a.479.479,0,0,0,0,.164q0,1.726,0,3.453c0,.2-.02.218-.217.218H559.64c-.2,0-.225-.026-.226-.229,0-.79,0-1.579,0-2.368-.007-1.375-.007-2.75-.036-4.125a5.958,5.958,0,0,1,.326-1.91,4.405,4.405,0,0,1,1.153-1.9,3.82,3.82,0,0,1,1.43-.876,4.8,4.8,0,0,1,1.773-.294,6.616,6.616,0,0,1,1.486.232,3.2,3.2,0,0,1,1.72,1.253,5.574,5.574,0,0,1,.779,1.646A6.693,6.693,0,0,1,568.3,421c-.006.793.03,1.586.042,2.379.012.762.017,1.524.025,2.286.006.52.018,1.04.023,1.561,0,.221-.026.248-.24.248H565.24c-.225,0-.269-.039-.267-.266,0-.2.027-.392.025-.588,0-.338-.024-.676-.024-1.015,0-.377.019-.755.023-1.133C565,424.165,565,423.856,565,423.529Zm-.052-3.151a1.486,1.486,0,0,0,0-.268,1.381,1.381,0,0,0-.859-.971.428.428,0,0,0-.242-.069,1.182,1.182,0,0,0-.945.7c-.061.171-.11.347-.161.521a.222.222,0,0,0,.007.085Z" transform="translate(-550.488 -367.748)" fill="#23232c"/><path id="Path_84" data-name="Path 84" d="M540.092,416.235h2.054c.222,0,.267.041.27.267q.02,1.282.036,2.563c0,.2-.017.217-.214.217q-1.562,0-3.124,0c-.136,0-.268.008-.334.148a.478.478,0,0,0,.131.461q.709.457,1.426.905a8.2,8.2,0,0,1,2.076,1.518,2.658,2.658,0,0,1,.6,1.14,3.624,3.624,0,0,1,.146.812,4.528,4.528,0,0,1-.146,1.007,3.093,3.093,0,0,1-.847,1.478,3.149,3.149,0,0,1-1.894.946c-.443.048-.894.046-1.34.051-1.139.012-2.279.015-3.418.021-.4,0-.4,0-.4-.393.009-.882.022-1.764.03-2.646,0-.133.052-.188.185-.186.947.013,1.894.021,2.84.035.305,0,.61.025.916.03.268,0,.326-.12.25-.381s-.292-.37-.486-.494c-.723-.46-1.459-.9-2.181-1.36a3.386,3.386,0,0,1-1.41-1.671,3.561,3.561,0,0,1-.146-1.737,3.165,3.165,0,0,1,.525-1.449,2.878,2.878,0,0,1,1.351-1.038,3.8,3.8,0,0,1,1.421-.223c.559,0,1.118,0,1.677,0Z" transform="translate(-535.074 -368.041)" fill="#23232c"/><path id="Path_85" data-name="Path 85" d="M631.926,418.068c0,.46,0,.921,0,1.381,0,.133-.042.176-.171.167a5.045,5.045,0,0,0-.7-.029,6.033,6.033,0,0,0-1.18.136,3.38,3.38,0,0,0-2,1.306,2.037,2.037,0,0,0,.147,2.6,3.512,3.512,0,0,0,2.025,1.153,4.637,4.637,0,0,0,1.591.067c.043-.005.088,0,.131,0,.127-.015.158.044.157.163-.005.471,0,.943,0,1.414,0,.417,0,.833,0,1.25,0,.138-.029.2-.19.207-.348.015-.7.1-1.042.085a8.308,8.308,0,0,1-2.277-.34,6.744,6.744,0,0,1-2.277-1.218,5.566,5.566,0,0,1-1.689-2.274,3.63,3.63,0,0,1-.32-1.321,12,12,0,0,1,.013-1.47,4.638,4.638,0,0,1,.335-1.183,5.742,5.742,0,0,1,2.165-2.59,6.882,6.882,0,0,1,2.159-.959,5.423,5.423,0,0,1,.883-.137c.438-.039.879-.065,1.319-.072a7.03,7.03,0,0,1,.795.063c.115.012.126.1.125.194C631.925,417.125,631.926,417.6,631.926,418.068Z" transform="translate(-591.558 -368.143)" fill="#23232c"/><path id="Path_86" data-name="Path 86" d="M633.2,352.1a1.061,1.061,0,0,1-.721-.286c-.155-.116-.288-.261-.432-.39a.174.174,0,0,0-.1-.042c-.192,0-.384-.007-.575,0-.419.018-.838.045-1.257.063-.6.025-1.194.044-1.791.068-.5.02-.991.042-1.486.065a3.06,3.06,0,0,0-.668.043,2.877,2.877,0,0,0-.7.322c-.509.306-1,.635-1.507.95a.2.2,0,0,1-.167.006c-.3-.164-.6-.337-.9-.512a.227.227,0,0,1-.079-.1.749.749,0,0,1,.2-.793q.623-.5,1.236-1.008a.471.471,0,0,1,.337-.126c.5.017.994.038,1.492.031.562-.007,1.125-.025,1.685-.067a5.35,5.35,0,0,0,1.636-.362.505.505,0,0,0,.362-.346c.1-.373.262-.729.369-1.1a3.156,3.156,0,0,0,.187-1.031c-.008-.147-.072-.206-.208-.213-.375-.021-.752-.024-1.124-.071-.422-.054-.839-.146-1.257-.226a.255.255,0,0,1-.147-.33,3.347,3.347,0,0,1,.947-1.012c.441-.35.88-.7,1.312-1.064.139-.116.269-.035.376.007.387.152.763.331,1.142.5a2.807,2.807,0,0,0,.472.214.925.925,0,0,0,.421-.026c.276-.069.543-.168.818-.243s.386-.018.465.256c.115.392.221.786.324,1.182a1.175,1.175,0,0,1,.033.32c0,.034-.059.078-.1.1-.389.2-.789.384-1.17.6a2.447,2.447,0,0,0-1.015,1.036,1.72,1.72,0,0,0-.136,1.171.455.455,0,0,0,.16.2,11.878,11.878,0,0,0,1.179,1C633.3,351.206,633.231,351.642,633.2,352.1Z" transform="translate(-590.707 -322.541)" fill="#23232c"/><path id="Path_87" data-name="Path 87" d="M612.309,324.018a1.649,1.649,0,0,1,.665-.723,5.5,5.5,0,0,1,1.689-.719c.35-.092.7-.181,1.056-.246a.952.952,0,0,1,.379.054,9.094,9.094,0,0,1,2.178.819.215.215,0,0,1,.1.156c0,.766-.02,1.532-.031,2.3,0,.01-.009.019-.015.033a.566.566,0,0,1-.44-.095,6.243,6.243,0,0,0-1.392-.813,2.341,2.341,0,0,0-1.165-.136.52.52,0,0,1-.476-.181,7.75,7.75,0,0,0-.612-.567.555.555,0,0,0-.348-.064c-.247.016-.493.06-.74.091l-.773.1A.54.54,0,0,1,612.309,324.018Z" transform="translate(-584.069 -308.467)" fill="#23232c"/><path id="Path_88" data-name="Path 88" d="M647.872,325.4a2,2,0,0,1-.461,1.247,7.917,7.917,0,0,1-1.472,1.292c-.217-.216-.448-.416-.643-.646a.617.617,0,0,1,.327-.993,11.522,11.522,0,0,0,2.164-.854Z" transform="translate(-604.903 -310.417)" fill="#23232c"/></g></g></svg>